<mxfile host="app.diagrams.net" modified="2024-07-23T02:27:33.994Z" agent="Mozilla/5.0 (Windows NT 10.0; Win64; x64) AppleWebKit/537.36 (KHTML, like Gecko) Chrome/126.0.0.0 Safari/537.36" etag="yu6AeeIAW5oTuofrSgqB" version="24.7.3" type="device">
  <diagram name="Page-1" id="ASlnIaUPIvVgofU1OomR">
    <mxGraphModel dx="1395" dy="338" grid="1" gridSize="10" guides="1" tooltips="1" connect="1" arrows="1" fold="1" page="1" pageScale="1" pageWidth="850" pageHeight="1100" math="0" shadow="0">
      <root>
        <mxCell id="0" />
        <mxCell id="1" parent="0" />
        <mxCell id="l-0CZw1E3qbjTrvyJSG1-7" value="alamat" style="ellipse;whiteSpace=wrap;html=1;align=center;" vertex="1" parent="1">
          <mxGeometry x="-410" y="180" width="80" height="40" as="geometry" />
        </mxCell>
        <mxCell id="l-0CZw1E3qbjTrvyJSG1-8" value="jurusan" style="ellipse;whiteSpace=wrap;html=1;align=center;" vertex="1" parent="1">
          <mxGeometry x="-480" y="140" width="80" height="40" as="geometry" />
        </mxCell>
        <mxCell id="l-0CZw1E3qbjTrvyJSG1-9" value="nim" style="ellipse;whiteSpace=wrap;html=1;align=center;fontStyle=4;" vertex="1" parent="1">
          <mxGeometry x="-400" y="100" width="80" height="40" as="geometry" />
        </mxCell>
        <mxCell id="l-0CZw1E3qbjTrvyJSG1-10" value="nama" style="ellipse;whiteSpace=wrap;html=1;align=center;" vertex="1" parent="1">
          <mxGeometry x="-242.5" y="80" width="85" height="40" as="geometry" />
        </mxCell>
        <mxCell id="l-0CZw1E3qbjTrvyJSG1-11" value="nama_tengah" style="ellipse;whiteSpace=wrap;html=1;align=center;" vertex="1" parent="1">
          <mxGeometry x="-250" y="10" width="100" height="40" as="geometry" />
        </mxCell>
        <mxCell id="l-0CZw1E3qbjTrvyJSG1-12" value="nama_belakang" style="ellipse;whiteSpace=wrap;html=1;align=center;" vertex="1" parent="1">
          <mxGeometry x="-90" y="30" width="100" height="40" as="geometry" />
        </mxCell>
        <mxCell id="l-0CZw1E3qbjTrvyJSG1-14" value="" style="endArrow=none;html=1;rounded=0;exitX=0.938;exitY=0.275;exitDx=0;exitDy=0;exitPerimeter=0;" edge="1" parent="1" source="l-0CZw1E3qbjTrvyJSG1-7">
          <mxGeometry relative="1" as="geometry">
            <mxPoint x="-342.96000000000004" y="180" as="sourcePoint" />
            <mxPoint x="-250" y="160" as="targetPoint" />
          </mxGeometry>
        </mxCell>
        <mxCell id="l-0CZw1E3qbjTrvyJSG1-18" value="" style="endArrow=none;html=1;rounded=0;exitX=0.948;exitY=0.707;exitDx=0;exitDy=0;exitPerimeter=0;entryX=0;entryY=0.75;entryDx=0;entryDy=0;" edge="1" parent="1" source="l-0CZw1E3qbjTrvyJSG1-9">
          <mxGeometry relative="1" as="geometry">
            <mxPoint x="-348.96000000000004" y="130" as="sourcePoint" />
            <mxPoint x="-250" y="161" as="targetPoint" />
          </mxGeometry>
        </mxCell>
        <mxCell id="l-0CZw1E3qbjTrvyJSG1-19" value="" style="endArrow=none;html=1;rounded=0;exitX=0.5;exitY=0;exitDx=0;exitDy=0;entryX=0.5;entryY=1;entryDx=0;entryDy=0;" edge="1" parent="1" source="l-0CZw1E3qbjTrvyJSG1-6" target="l-0CZw1E3qbjTrvyJSG1-10">
          <mxGeometry relative="1" as="geometry">
            <mxPoint x="170" y="140" as="sourcePoint" />
            <mxPoint x="330" y="140" as="targetPoint" />
          </mxGeometry>
        </mxCell>
        <mxCell id="l-0CZw1E3qbjTrvyJSG1-20" value="" style="endArrow=none;html=1;rounded=0;exitX=1;exitY=0.5;exitDx=0;exitDy=0;entryX=0;entryY=0.5;entryDx=0;entryDy=0;" edge="1" parent="1" source="l-0CZw1E3qbjTrvyJSG1-8" target="l-0CZw1E3qbjTrvyJSG1-6">
          <mxGeometry relative="1" as="geometry">
            <mxPoint x="-440" y="160" as="sourcePoint" />
            <mxPoint x="-250" y="160" as="targetPoint" />
          </mxGeometry>
        </mxCell>
        <mxCell id="l-0CZw1E3qbjTrvyJSG1-6" value="mahasiswa" style="whiteSpace=wrap;html=1;align=center;" vertex="1" parent="1">
          <mxGeometry x="-250" y="140" width="100" height="40" as="geometry" />
        </mxCell>
        <mxCell id="l-0CZw1E3qbjTrvyJSG1-21" value="" style="endArrow=none;html=1;rounded=0;entryX=0.5;entryY=1;entryDx=0;entryDy=0;exitX=0.5;exitY=0;exitDx=0;exitDy=0;" edge="1" parent="1" source="l-0CZw1E3qbjTrvyJSG1-10" target="l-0CZw1E3qbjTrvyJSG1-11">
          <mxGeometry relative="1" as="geometry">
            <mxPoint x="-270" y="70" as="sourcePoint" />
            <mxPoint x="-110" y="70" as="targetPoint" />
          </mxGeometry>
        </mxCell>
        <mxCell id="l-0CZw1E3qbjTrvyJSG1-23" value="nama_depan" style="ellipse;whiteSpace=wrap;html=1;align=center;" vertex="1" parent="1">
          <mxGeometry x="-410" y="30" width="100" height="40" as="geometry" />
        </mxCell>
        <mxCell id="l-0CZw1E3qbjTrvyJSG1-24" value="" style="endArrow=none;html=1;rounded=0;exitX=1;exitY=0.5;exitDx=0;exitDy=0;" edge="1" parent="1" source="l-0CZw1E3qbjTrvyJSG1-23">
          <mxGeometry relative="1" as="geometry">
            <mxPoint x="-360" y="80" as="sourcePoint" />
            <mxPoint x="-200" y="80" as="targetPoint" />
          </mxGeometry>
        </mxCell>
        <mxCell id="l-0CZw1E3qbjTrvyJSG1-25" value="" style="endArrow=none;html=1;rounded=0;entryX=0;entryY=0.5;entryDx=0;entryDy=0;" edge="1" parent="1" target="l-0CZw1E3qbjTrvyJSG1-12">
          <mxGeometry relative="1" as="geometry">
            <mxPoint x="-200" y="80" as="sourcePoint" />
            <mxPoint x="-40" y="80" as="targetPoint" />
          </mxGeometry>
        </mxCell>
        <mxCell id="l-0CZw1E3qbjTrvyJSG1-26" value="mendaftar" style="shape=rhombus;perimeter=rhombusPerimeter;whiteSpace=wrap;html=1;align=center;" vertex="1" parent="1">
          <mxGeometry x="100" y="130" width="110" height="60" as="geometry" />
        </mxCell>
        <mxCell id="l-0CZw1E3qbjTrvyJSG1-27" value="" style="endArrow=none;html=1;rounded=0;entryX=0;entryY=0.5;entryDx=0;entryDy=0;" edge="1" parent="1" target="l-0CZw1E3qbjTrvyJSG1-26">
          <mxGeometry relative="1" as="geometry">
            <mxPoint x="-150" y="160" as="sourcePoint" />
            <mxPoint x="10" y="160" as="targetPoint" />
          </mxGeometry>
        </mxCell>
        <mxCell id="l-0CZw1E3qbjTrvyJSG1-29" value="alamat" style="ellipse;whiteSpace=wrap;html=1;align=center;" vertex="1" parent="1">
          <mxGeometry y="80" width="90" height="40" as="geometry" />
        </mxCell>
        <mxCell id="l-0CZw1E3qbjTrvyJSG1-30" value="jurusan" style="ellipse;whiteSpace=wrap;html=1;align=center;" vertex="1" parent="1">
          <mxGeometry x="50" y="20" width="100" height="40" as="geometry" />
        </mxCell>
        <mxCell id="l-0CZw1E3qbjTrvyJSG1-31" value="Attribute" style="ellipse;whiteSpace=wrap;html=1;align=center;" vertex="1" parent="1">
          <mxGeometry x="170" y="20" width="100" height="40" as="geometry" />
        </mxCell>
        <mxCell id="l-0CZw1E3qbjTrvyJSG1-32" value="nama" style="ellipse;whiteSpace=wrap;html=1;align=center;" vertex="1" parent="1">
          <mxGeometry x="240" y="70" width="100" height="40" as="geometry" />
        </mxCell>
        <mxCell id="l-0CZw1E3qbjTrvyJSG1-33" value="" style="endArrow=none;html=1;rounded=0;exitX=1;exitY=0.5;exitDx=0;exitDy=0;entryX=0.5;entryY=0;entryDx=0;entryDy=0;" edge="1" parent="1" source="l-0CZw1E3qbjTrvyJSG1-29" target="l-0CZw1E3qbjTrvyJSG1-26">
          <mxGeometry relative="1" as="geometry">
            <mxPoint x="90" y="100" as="sourcePoint" />
            <mxPoint x="150" y="129" as="targetPoint" />
          </mxGeometry>
        </mxCell>
        <mxCell id="l-0CZw1E3qbjTrvyJSG1-37" value="" style="endArrow=none;html=1;rounded=0;entryX=0.5;entryY=0;entryDx=0;entryDy=0;" edge="1" parent="1" target="l-0CZw1E3qbjTrvyJSG1-26">
          <mxGeometry relative="1" as="geometry">
            <mxPoint x="90" y="60" as="sourcePoint" />
            <mxPoint x="250" y="60" as="targetPoint" />
          </mxGeometry>
        </mxCell>
        <mxCell id="l-0CZw1E3qbjTrvyJSG1-38" value="" style="endArrow=none;html=1;rounded=0;entryX=0.5;entryY=0;entryDx=0;entryDy=0;" edge="1" parent="1" target="l-0CZw1E3qbjTrvyJSG1-26">
          <mxGeometry relative="1" as="geometry">
            <mxPoint x="220" y="60" as="sourcePoint" />
            <mxPoint x="380" y="60" as="targetPoint" />
          </mxGeometry>
        </mxCell>
        <mxCell id="l-0CZw1E3qbjTrvyJSG1-39" value="" style="endArrow=none;html=1;rounded=0;entryX=0.5;entryY=0;entryDx=0;entryDy=0;exitX=0;exitY=0.5;exitDx=0;exitDy=0;" edge="1" parent="1" source="l-0CZw1E3qbjTrvyJSG1-32" target="l-0CZw1E3qbjTrvyJSG1-26">
          <mxGeometry relative="1" as="geometry">
            <mxPoint x="280" y="120" as="sourcePoint" />
            <mxPoint x="440" y="120" as="targetPoint" />
          </mxGeometry>
        </mxCell>
        <mxCell id="l-0CZw1E3qbjTrvyJSG1-40" value="nim" style="ellipse;whiteSpace=wrap;html=1;align=center;fontStyle=4;" vertex="1" parent="1">
          <mxGeometry x="170" y="20" width="100" height="40" as="geometry" />
        </mxCell>
        <mxCell id="l-0CZw1E3qbjTrvyJSG1-41" value="" style="endArrow=none;html=1;rounded=0;" edge="1" parent="1">
          <mxGeometry relative="1" as="geometry">
            <mxPoint x="210" y="160" as="sourcePoint" />
            <mxPoint x="450" y="160" as="targetPoint" />
          </mxGeometry>
        </mxCell>
        <mxCell id="l-0CZw1E3qbjTrvyJSG1-42" value="anggota&lt;div&gt;perpustakaan&lt;/div&gt;" style="whiteSpace=wrap;html=1;align=center;" vertex="1" parent="1">
          <mxGeometry x="450" y="140" width="100" height="40" as="geometry" />
        </mxCell>
        <mxCell id="l-0CZw1E3qbjTrvyJSG1-43" value="nama_anggota" style="ellipse;whiteSpace=wrap;html=1;align=center;fontStyle=4;" vertex="1" parent="1">
          <mxGeometry x="350" y="70" width="100" height="40" as="geometry" />
        </mxCell>
        <mxCell id="l-0CZw1E3qbjTrvyJSG1-44" value="nama" style="ellipse;whiteSpace=wrap;html=1;align=center;" vertex="1" parent="1">
          <mxGeometry x="410" y="20" width="100" height="40" as="geometry" />
        </mxCell>
        <mxCell id="l-0CZw1E3qbjTrvyJSG1-45" value="jurusan" style="ellipse;whiteSpace=wrap;html=1;align=center;" vertex="1" parent="1">
          <mxGeometry x="550" y="20" width="100" height="40" as="geometry" />
        </mxCell>
        <mxCell id="l-0CZw1E3qbjTrvyJSG1-46" value="masa_berlaku" style="ellipse;whiteSpace=wrap;html=1;align=center;" vertex="1" parent="1">
          <mxGeometry x="590" y="70" width="100" height="40" as="geometry" />
        </mxCell>
        <mxCell id="l-0CZw1E3qbjTrvyJSG1-47" value="" style="endArrow=none;html=1;rounded=0;entryX=0.5;entryY=0;entryDx=0;entryDy=0;" edge="1" parent="1" target="l-0CZw1E3qbjTrvyJSG1-42">
          <mxGeometry relative="1" as="geometry">
            <mxPoint x="410" y="110" as="sourcePoint" />
            <mxPoint x="570" y="110" as="targetPoint" />
          </mxGeometry>
        </mxCell>
        <mxCell id="l-0CZw1E3qbjTrvyJSG1-48" value="" style="endArrow=none;html=1;rounded=0;entryX=0.5;entryY=0;entryDx=0;entryDy=0;" edge="1" parent="1" target="l-0CZw1E3qbjTrvyJSG1-42">
          <mxGeometry relative="1" as="geometry">
            <mxPoint x="470" y="60" as="sourcePoint" />
            <mxPoint x="630" y="60" as="targetPoint" />
          </mxGeometry>
        </mxCell>
        <mxCell id="l-0CZw1E3qbjTrvyJSG1-49" value="" style="endArrow=none;html=1;rounded=0;entryX=0.5;entryY=0;entryDx=0;entryDy=0;" edge="1" parent="1" target="l-0CZw1E3qbjTrvyJSG1-42">
          <mxGeometry relative="1" as="geometry">
            <mxPoint x="580" y="60" as="sourcePoint" />
            <mxPoint x="740" y="60" as="targetPoint" />
          </mxGeometry>
        </mxCell>
        <mxCell id="l-0CZw1E3qbjTrvyJSG1-50" value="" style="endArrow=none;html=1;rounded=0;exitX=0.227;exitY=0.917;exitDx=0;exitDy=0;exitPerimeter=0;" edge="1" parent="1" source="l-0CZw1E3qbjTrvyJSG1-46">
          <mxGeometry relative="1" as="geometry">
            <mxPoint x="620" y="110" as="sourcePoint" />
            <mxPoint x="500" y="140" as="targetPoint" />
          </mxGeometry>
        </mxCell>
        <mxCell id="l-0CZw1E3qbjTrvyJSG1-51" value="" style="endArrow=none;html=1;rounded=0;" edge="1" parent="1">
          <mxGeometry relative="1" as="geometry">
            <mxPoint x="500" y="180" as="sourcePoint" />
            <mxPoint x="500" y="290" as="targetPoint" />
          </mxGeometry>
        </mxCell>
        <mxCell id="l-0CZw1E3qbjTrvyJSG1-84" value="1" style="edgeLabel;html=1;align=center;verticalAlign=middle;resizable=0;points=[];" vertex="1" connectable="0" parent="l-0CZw1E3qbjTrvyJSG1-51">
          <mxGeometry x="-0.6455" y="1" relative="1" as="geometry">
            <mxPoint as="offset" />
          </mxGeometry>
        </mxCell>
        <mxCell id="l-0CZw1E3qbjTrvyJSG1-52" value="peminjaman" style="shape=rhombus;perimeter=rhombusPerimeter;whiteSpace=wrap;html=1;align=center;" vertex="1" parent="1">
          <mxGeometry x="455" y="260" width="90" height="70" as="geometry" />
        </mxCell>
        <mxCell id="l-0CZw1E3qbjTrvyJSG1-53" value="Attribute" style="ellipse;whiteSpace=wrap;html=1;align=center;" vertex="1" parent="1">
          <mxGeometry x="370" y="200" width="90" height="40" as="geometry" />
        </mxCell>
        <mxCell id="l-0CZw1E3qbjTrvyJSG1-54" value="Attribute" style="ellipse;whiteSpace=wrap;html=1;align=center;" vertex="1" parent="1">
          <mxGeometry x="325" y="250" width="85" height="40" as="geometry" />
        </mxCell>
        <mxCell id="l-0CZw1E3qbjTrvyJSG1-55" value="tinggal_pinjam" style="ellipse;whiteSpace=wrap;html=1;align=center;" vertex="1" parent="1">
          <mxGeometry x="317.5" y="300" width="92.5" height="40" as="geometry" />
        </mxCell>
        <mxCell id="l-0CZw1E3qbjTrvyJSG1-58" value="nomor_anggota" style="ellipse;whiteSpace=wrap;html=1;align=center;fontStyle=4;" vertex="1" parent="1">
          <mxGeometry x="545" y="210" width="90" height="40" as="geometry" />
        </mxCell>
        <mxCell id="l-0CZw1E3qbjTrvyJSG1-59" value="nomor_buku" style="ellipse;whiteSpace=wrap;html=1;align=center;fontStyle=4;" vertex="1" parent="1">
          <mxGeometry x="600" y="250" width="90" height="40" as="geometry" />
        </mxCell>
        <mxCell id="l-0CZw1E3qbjTrvyJSG1-60" value="judul_buku" style="ellipse;whiteSpace=wrap;html=1;align=center;" vertex="1" parent="1">
          <mxGeometry x="590" y="310" width="100" height="40" as="geometry" />
        </mxCell>
        <mxCell id="l-0CZw1E3qbjTrvyJSG1-61" value="denda" style="ellipse;whiteSpace=wrap;html=1;align=center;fontStyle=4;" vertex="1" parent="1">
          <mxGeometry x="595" y="360" width="100" height="40" as="geometry" />
        </mxCell>
        <mxCell id="l-0CZw1E3qbjTrvyJSG1-62" value="" style="endArrow=none;html=1;rounded=0;entryX=0;entryY=0.5;entryDx=0;entryDy=0;" edge="1" parent="1" target="l-0CZw1E3qbjTrvyJSG1-52">
          <mxGeometry relative="1" as="geometry">
            <mxPoint x="410" y="320" as="sourcePoint" />
            <mxPoint x="570" y="320" as="targetPoint" />
          </mxGeometry>
        </mxCell>
        <mxCell id="l-0CZw1E3qbjTrvyJSG1-63" value="" style="endArrow=none;html=1;rounded=0;entryX=0;entryY=0.5;entryDx=0;entryDy=0;" edge="1" parent="1" target="l-0CZw1E3qbjTrvyJSG1-52">
          <mxGeometry relative="1" as="geometry">
            <mxPoint x="410" y="270" as="sourcePoint" />
            <mxPoint x="570" y="270" as="targetPoint" />
          </mxGeometry>
        </mxCell>
        <mxCell id="l-0CZw1E3qbjTrvyJSG1-64" value="" style="endArrow=none;html=1;rounded=0;entryX=0;entryY=0.5;entryDx=0;entryDy=0;" edge="1" parent="1" source="l-0CZw1E3qbjTrvyJSG1-53" target="l-0CZw1E3qbjTrvyJSG1-52">
          <mxGeometry relative="1" as="geometry">
            <mxPoint x="430" y="240" as="sourcePoint" />
            <mxPoint x="585" y="249.17" as="targetPoint" />
          </mxGeometry>
        </mxCell>
        <mxCell id="l-0CZw1E3qbjTrvyJSG1-65" value="" style="endArrow=none;html=1;rounded=0;exitX=1;exitY=0.5;exitDx=0;exitDy=0;" edge="1" parent="1" source="l-0CZw1E3qbjTrvyJSG1-52">
          <mxGeometry relative="1" as="geometry">
            <mxPoint x="440" y="250" as="sourcePoint" />
            <mxPoint x="600" y="250" as="targetPoint" />
          </mxGeometry>
        </mxCell>
        <mxCell id="l-0CZw1E3qbjTrvyJSG1-66" value="" style="endArrow=none;html=1;rounded=0;exitX=1;exitY=0.5;exitDx=0;exitDy=0;" edge="1" parent="1" source="l-0CZw1E3qbjTrvyJSG1-52">
          <mxGeometry relative="1" as="geometry">
            <mxPoint x="490" y="290" as="sourcePoint" />
            <mxPoint x="650" y="290" as="targetPoint" />
          </mxGeometry>
        </mxCell>
        <mxCell id="l-0CZw1E3qbjTrvyJSG1-67" value="" style="endArrow=none;html=1;rounded=0;exitX=1;exitY=0.5;exitDx=0;exitDy=0;" edge="1" parent="1" source="l-0CZw1E3qbjTrvyJSG1-52">
          <mxGeometry relative="1" as="geometry">
            <mxPoint x="430" y="330" as="sourcePoint" />
            <mxPoint x="590" y="330" as="targetPoint" />
          </mxGeometry>
        </mxCell>
        <mxCell id="l-0CZw1E3qbjTrvyJSG1-68" value="" style="endArrow=none;html=1;rounded=0;exitX=1;exitY=0.5;exitDx=0;exitDy=0;entryX=0.071;entryY=0.264;entryDx=0;entryDy=0;entryPerimeter=0;" edge="1" parent="1" source="l-0CZw1E3qbjTrvyJSG1-52" target="l-0CZw1E3qbjTrvyJSG1-61">
          <mxGeometry relative="1" as="geometry">
            <mxPoint x="430" y="380" as="sourcePoint" />
            <mxPoint x="590" y="380" as="targetPoint" />
          </mxGeometry>
        </mxCell>
        <mxCell id="l-0CZw1E3qbjTrvyJSG1-69" value="" style="endArrow=none;html=1;rounded=0;" edge="1" parent="1">
          <mxGeometry relative="1" as="geometry">
            <mxPoint x="500" y="330" as="sourcePoint" />
            <mxPoint x="500" y="430" as="targetPoint" />
          </mxGeometry>
        </mxCell>
        <mxCell id="l-0CZw1E3qbjTrvyJSG1-83" value="many" style="edgeLabel;html=1;align=center;verticalAlign=middle;resizable=0;points=[];" vertex="1" connectable="0" parent="l-0CZw1E3qbjTrvyJSG1-69">
          <mxGeometry x="-0.2267" y="1" relative="1" as="geometry">
            <mxPoint as="offset" />
          </mxGeometry>
        </mxCell>
        <mxCell id="l-0CZw1E3qbjTrvyJSG1-70" value="buku" style="whiteSpace=wrap;html=1;align=center;" vertex="1" parent="1">
          <mxGeometry x="450" y="430" width="100" height="40" as="geometry" />
        </mxCell>
        <mxCell id="l-0CZw1E3qbjTrvyJSG1-71" value="judul_buku" style="ellipse;whiteSpace=wrap;html=1;align=center;" vertex="1" parent="1">
          <mxGeometry x="280" y="480" width="100" height="40" as="geometry" />
        </mxCell>
        <mxCell id="l-0CZw1E3qbjTrvyJSG1-72" value="nomor_buku" style="ellipse;whiteSpace=wrap;html=1;align=center;fontStyle=4;" vertex="1" parent="1">
          <mxGeometry x="318" y="550" width="100" height="40" as="geometry" />
        </mxCell>
        <mxCell id="l-0CZw1E3qbjTrvyJSG1-73" value="tahun_terbit" style="ellipse;whiteSpace=wrap;html=1;align=center;" vertex="1" parent="1">
          <mxGeometry x="380" y="610" width="100" height="40" as="geometry" />
        </mxCell>
        <mxCell id="l-0CZw1E3qbjTrvyJSG1-74" value="penerbit" style="ellipse;whiteSpace=wrap;html=1;align=center;" vertex="1" parent="1">
          <mxGeometry x="510" y="610" width="100" height="40" as="geometry" />
        </mxCell>
        <mxCell id="l-0CZw1E3qbjTrvyJSG1-75" value="jenis_buku" style="ellipse;whiteSpace=wrap;html=1;align=center;" vertex="1" parent="1">
          <mxGeometry x="595" y="550" width="100" height="40" as="geometry" />
        </mxCell>
        <mxCell id="l-0CZw1E3qbjTrvyJSG1-76" value="pengarang" style="ellipse;whiteSpace=wrap;html=1;align=center;" vertex="1" parent="1">
          <mxGeometry x="620" y="480" width="100" height="40" as="geometry" />
        </mxCell>
        <mxCell id="l-0CZw1E3qbjTrvyJSG1-77" value="" style="endArrow=none;html=1;rounded=0;entryX=0.5;entryY=1;entryDx=0;entryDy=0;" edge="1" parent="1" target="l-0CZw1E3qbjTrvyJSG1-70">
          <mxGeometry relative="1" as="geometry">
            <mxPoint x="380" y="500" as="sourcePoint" />
            <mxPoint x="540" y="500" as="targetPoint" />
          </mxGeometry>
        </mxCell>
        <mxCell id="l-0CZw1E3qbjTrvyJSG1-78" value="" style="endArrow=none;html=1;rounded=0;exitX=0.62;exitY=0;exitDx=0;exitDy=0;exitPerimeter=0;entryX=0.5;entryY=1;entryDx=0;entryDy=0;" edge="1" parent="1" source="l-0CZw1E3qbjTrvyJSG1-72" target="l-0CZw1E3qbjTrvyJSG1-70">
          <mxGeometry relative="1" as="geometry">
            <mxPoint x="390" y="550" as="sourcePoint" />
            <mxPoint x="550" y="550" as="targetPoint" />
          </mxGeometry>
        </mxCell>
        <mxCell id="l-0CZw1E3qbjTrvyJSG1-79" value="" style="endArrow=none;html=1;rounded=0;entryX=0.5;entryY=1;entryDx=0;entryDy=0;exitX=0.575;exitY=0.029;exitDx=0;exitDy=0;exitPerimeter=0;" edge="1" parent="1" source="l-0CZw1E3qbjTrvyJSG1-73" target="l-0CZw1E3qbjTrvyJSG1-70">
          <mxGeometry relative="1" as="geometry">
            <mxPoint x="440" y="630" as="sourcePoint" />
            <mxPoint x="600" y="630" as="targetPoint" />
          </mxGeometry>
        </mxCell>
        <mxCell id="l-0CZw1E3qbjTrvyJSG1-80" value="" style="endArrow=none;html=1;rounded=0;exitX=0.5;exitY=1;exitDx=0;exitDy=0;entryX=0.433;entryY=0.008;entryDx=0;entryDy=0;entryPerimeter=0;" edge="1" parent="1" source="l-0CZw1E3qbjTrvyJSG1-70" target="l-0CZw1E3qbjTrvyJSG1-74">
          <mxGeometry relative="1" as="geometry">
            <mxPoint x="430" y="630" as="sourcePoint" />
            <mxPoint x="580" y="610" as="targetPoint" />
          </mxGeometry>
        </mxCell>
        <mxCell id="l-0CZw1E3qbjTrvyJSG1-81" value="" style="endArrow=none;html=1;rounded=0;exitX=0.5;exitY=1;exitDx=0;exitDy=0;entryX=0.5;entryY=0;entryDx=0;entryDy=0;" edge="1" parent="1" source="l-0CZw1E3qbjTrvyJSG1-70" target="l-0CZw1E3qbjTrvyJSG1-75">
          <mxGeometry relative="1" as="geometry">
            <mxPoint x="530" y="550" as="sourcePoint" />
            <mxPoint x="690" y="550" as="targetPoint" />
          </mxGeometry>
        </mxCell>
        <mxCell id="l-0CZw1E3qbjTrvyJSG1-82" value="" style="endArrow=none;html=1;rounded=0;exitX=0.558;exitY=1.029;exitDx=0;exitDy=0;exitPerimeter=0;entryX=0.025;entryY=0.321;entryDx=0;entryDy=0;entryPerimeter=0;" edge="1" parent="1" source="l-0CZw1E3qbjTrvyJSG1-70" target="l-0CZw1E3qbjTrvyJSG1-76">
          <mxGeometry relative="1" as="geometry">
            <mxPoint x="550" y="480" as="sourcePoint" />
            <mxPoint x="660" y="490" as="targetPoint" />
          </mxGeometry>
        </mxCell>
        <mxCell id="l-0CZw1E3qbjTrvyJSG1-85" value="many" style="text;html=1;align=center;verticalAlign=middle;resizable=0;points=[];autosize=1;strokeColor=none;fillColor=none;" vertex="1" parent="1">
          <mxGeometry x="290" y="150" width="50" height="30" as="geometry" />
        </mxCell>
        <mxCell id="l-0CZw1E3qbjTrvyJSG1-86" value="many" style="text;html=1;align=center;verticalAlign=middle;resizable=0;points=[];autosize=1;strokeColor=none;fillColor=none;" vertex="1" parent="1">
          <mxGeometry x="-65" y="150" width="50" height="30" as="geometry" />
        </mxCell>
      </root>
    </mxGraphModel>
  </diagram>
</mxfile>
